<?xml version="1.0" encoding="UTF-8"?>
<svg width="20px" height="20px" viewBox="0 0 20 20" version="1.1" xmlns="http://www.w3.org/2000/svg" xmlns:xlink="http://www.w3.org/1999/xlink">
    <!-- Generator: Sketch 54.1 (76490) - https://sketchapp.com -->
    <title>Artboard Copy</title>
    <desc>Created with Sketch.</desc>
    <g id="Artboard-Copy" stroke="none" stroke-width="1" fill="none" fill-rule="evenodd">
        <g id="Twitter_Social_Icon_Circle_Color" fill-rule="nonzero">
            <g id="Dark_Blue" fill="#1DA1F2">
                <circle id="Oval" cx="10" cy="10" r="10"></circle>
            </g>
            <g id="Logo__x2014__FIXED" transform="translate(4.450000, 5.700000)" fill="#FFFFFF">
                <path d="M3.72,9.575 C8.155,9.575 10.58,5.9 10.58,2.715 C10.58,2.61 10.58,2.505 10.575,2.405 C11.045,2.065 11.455,1.64 11.78,1.155 C11.35,1.345 10.885,1.475 10.395,1.535 C10.895,1.235 11.275,0.765 11.455,0.2 C10.99,0.475 10.475,0.675 9.925,0.785 C9.485,0.315 8.86,0.025 8.165,0.025 C6.835,0.025 5.755,1.105 5.755,2.435 C5.755,2.625 5.775,2.81 5.82,2.985 C3.815,2.885 2.04,1.925 0.85,0.465 C0.645,0.82 0.525,1.235 0.525,1.675 C0.525,2.51 0.95,3.25 1.6,3.68 C1.205,3.67 0.835,3.56 0.51,3.38 C0.51,3.39 0.51,3.4 0.51,3.41 C0.51,4.58 1.34,5.55 2.445,5.775 C2.245,5.83 2.03,5.86 1.81,5.86 C1.655,5.86 1.505,5.845 1.355,5.815 C1.66,6.775 2.55,7.47 3.605,7.49 C2.78,8.135 1.74,8.52 0.61,8.52 C0.415,8.52 0.225,8.51 0.035,8.485 C1.09,9.175 2.36,9.575 3.72,9.575" id="Path"></path>
            </g>
        </g>
    </g>
</svg>