<?xml version="1.0" encoding="UTF-8"?>
<svg width="20px" height="20px" viewBox="0 0 20 20" version="1.1" xmlns="http://www.w3.org/2000/svg" xmlns:xlink="http://www.w3.org/1999/xlink">
    <!-- Generator: Sketch 54.1 (76490) - https://sketchapp.com -->
    <title>github</title>
    <desc>Created with Sketch.</desc>
    <g id="Page-1" stroke="none" stroke-width="1" fill="none" fill-rule="evenodd">
        <g id="github" fill="#000000" fill-rule="nonzero">
            <path d="M18.6392711,5.10829837 C17.7459681,3.54205128 16.5342597,2.30205128 15.0038269,1.38801865 C13.4731663,0.473939394 11.8021412,0.017016317 9.9895672,0.017016317 C8.17722096,0.017016317 6.5056492,0.474079254 4.97530752,1.38801865 C3.44473804,2.30200466 2.23307517,3.54205128 1.33977221,5.10829837 C0.446605923,6.67449883 0,8.38480186 0,10.2391608 C0,12.4666667 0.635079727,14.469697 1.90555809,16.2487646 C3.17589977,18.027972 4.81699317,19.2591142 6.82870159,19.942331 C7.06287016,19.9868065 7.23621868,19.9555245 7.34892938,19.8492774 C7.46168565,19.7428904 7.51799544,19.6096503 7.51799544,19.4501166 C7.51799544,19.4234965 7.5157631,19.1840093 7.51143508,18.7313753 C7.50697039,18.2787413 7.50487472,17.8838695 7.50487472,17.5469464 L7.20569476,17.5999068 C7.01494305,17.6356643 6.77430524,17.6508159 6.48378132,17.6465268 C6.19339408,17.6423776 5.89193622,17.6112354 5.57981777,17.5533333 C5.26756264,17.4959441 4.97712984,17.3628438 4.70829157,17.1543124 C4.43958998,16.9457809 4.24883827,16.6728205 4.136082,16.3358508 L4.00601367,16.0295571 C3.91931663,15.825641 3.7828246,15.5991142 3.59635535,15.3508159 C3.4098861,15.1022844 3.22132118,14.9337995 3.03056948,14.8450816 L2.93949886,14.7783683 C2.87881549,14.7340326 2.82250569,14.6805594 2.7704328,14.6185082 C2.71840547,14.5564569 2.6794533,14.494359 2.65343964,14.4321678 C2.62738041,14.3699301 2.64897494,14.3188811 2.71845103,14.2788345 C2.78792711,14.2387879 2.91348519,14.2193473 3.09567198,14.2193473 L3.35571754,14.2591142 C3.52915718,14.2946853 3.74369021,14.4009324 3.99958998,14.5785082 C4.25535308,14.7559441 4.46560364,14.98662 4.63038724,15.2704429 C4.82993166,15.634359 5.07034169,15.911655 5.35230068,16.1024709 C5.63403189,16.2932867 5.91808656,16.3885315 6.20419134,16.3885315 C6.49029613,16.3885315 6.73740319,16.3663403 6.94560364,16.3221911 C7.15357631,16.2778089 7.34870159,16.2110956 7.53088838,16.1224242 C7.60892938,15.5276457 7.8214123,15.0707226 8.1681549,14.7513287 C7.67394077,14.6981818 7.22961276,14.6181352 6.83494305,14.5117016 C6.44050114,14.4051282 6.03289294,14.2321678 5.6123918,13.9923543 C5.19166287,13.7528671 4.84264237,13.4554779 4.56523918,13.1006993 C4.28779043,12.7457343 4.06009112,12.2797203 3.88246014,11.7030769 C3.70473804,11.1262005 3.61585421,10.4607459 3.61585421,9.70652681 C3.61585421,8.63263403 3.95845103,7.71878788 4.64350797,6.96447552 C4.32259681,6.15710956 4.35289294,5.25202797 4.73448747,4.24932401 C4.98596811,4.16937063 5.35890661,4.22937063 5.85312073,4.42895105 C6.34742597,4.62862471 6.70933941,4.79967366 6.93922551,4.94149184 C7.16911162,5.0832634 7.35330296,5.20340326 7.49207289,5.30083916 C8.29867882,5.07020979 9.13107062,4.95487179 9.98947608,4.95487179 C10.8478815,4.95487179 11.6804556,5.07020979 12.4871071,5.30083916 L12.9813667,4.98153846 C13.3193622,4.76848485 13.7184966,4.57324009 14.1778132,4.39575758 C14.6374032,4.2183683 14.9888383,4.16951049 15.231754,4.24946387 C15.6218223,5.25221445 15.6565831,6.15724942 15.3355809,6.96461538 C16.0205923,7.71892774 16.3633257,8.63300699 16.3633257,9.70666667 C16.3633257,10.4608858 16.274123,11.1284382 16.0966743,11.7097436 C15.9189977,12.2911422 15.6893394,12.75669 15.4076082,13.107366 C15.1255581,13.4579953 14.7743052,13.7530536 14.3538041,13.9924942 C13.9332118,14.2321212 13.525467,14.4050816 13.1310251,14.511655 C12.7364009,14.6182284 12.2920729,14.6983217 11.7978588,14.7515618 C12.2486105,15.1507226 12.4740319,15.7807925 12.4740319,16.6414918 L12.4740319,19.4497436 C12.4740319,19.6092774 12.528246,19.7424709 12.6367654,19.8489044 C12.7451481,19.9551515 12.9163098,19.9864336 13.1504784,19.9419114 C15.1624601,19.2587879 16.8035535,18.0275991 18.0738497,16.2483916 C19.3440091,14.469324 19.9793166,12.4662937 19.9793166,10.2387879 C19.978861,8.384662 19.5320273,6.67449883 18.6392711,5.10829837 Z" id="Path"></path>
        </g>
    </g>
</svg>