<?xml version="1.0" encoding="UTF-8" standalone="no"?>
<svg width="16px" height="16px" viewBox="0 0 16 16" version="1.1" xmlns="http://www.w3.org/2000/svg" xmlns:xlink="http://www.w3.org/1999/xlink">
    <!-- Generator: Sketch 3.6.1 (26313) - http://www.bohemiancoding.com/sketch -->
    <title>Dribbble</title>
    <desc>Created with Sketch.</desc>
    <defs></defs>
    <g id="Page-1" stroke="none" stroke-width="1" fill="none" fill-rule="evenodd">
        <g id="Home---about-me-Copy" transform="translate(-674.000000, -651.000000)" fill="#EC4989">
            <g id="Group-6" transform="translate(674.000000, 651.000000)">
                <path d="M11.8181925,13.6661767 C11.7485741,13.2541596 11.3844887,11.2486331 10.4879167,8.78687754 C12.6940671,8.43412311 14.6048098,9.03897936 14.7459281,9.08507261 C14.4420533,10.9890058 13.3516787,12.6304897 11.8181925,13.6661767 L11.8181925,13.6661767 L11.8181925,13.6661767 Z M8.00047039,14.832618 C6.34656318,14.832618 4.83001117,14.244694 3.64743929,13.2663884 C3.73775504,13.3397613 3.80078791,13.3858545 3.80078791,13.3858545 C3.80078791,13.3858545 5.11036632,10.5299547 9.16234492,9.11799635 C9.17739754,9.11235228 9.19339096,9.10858957 9.20844358,9.10388618 C10.16993,11.6013875 10.5660022,13.6934564 10.6676075,14.2907872 C9.84818016,14.6388383 8.94596343,14.832618 8.00047039,14.832618 L8.00047039,14.832618 L8.00047039,14.832618 Z M1.16751926,7.99952966 C1.16751926,7.92709742 1.17128241,7.85560586 1.17316399,7.78411429 C1.29452578,7.78693633 4.67007703,7.86313128 8.18768742,6.81051208 C8.38337155,7.19336822 8.57058858,7.58374978 8.74181219,7.97224999 C8.65149644,7.99670763 8.56212148,8.0239873 8.47274652,8.05408901 C4.78579408,9.24498795 2.91550538,12.5618202 2.91550538,12.5618202 C2.91550538,12.5618202 2.91832775,12.5646422 2.91832775,12.5655829 C1.82983477,11.3549297 1.16751926,9.75483568 1.16751926,7.99952966 L1.16751926,7.99952966 L1.16751926,7.99952966 Z M5.08496501,1.82209419 C5.17622156,1.94344171 6.4397013,3.65641719 7.62227318,5.75789288 C4.34174164,6.62990182 1.49397307,6.59509671 1.31428235,6.59227468 C1.75739401,4.47574813 3.17892632,2.7213828 5.08496501,1.82209419 L5.08496501,1.82209419 L5.08496501,1.82209419 Z M6.36349738,1.36680581 C6.36349738,1.36774649 6.36255659,1.36868717 6.36255659,1.36868717 C6.36255659,1.36868717 6.35408949,1.37056852 6.34185923,1.37244988 C6.34938555,1.37056852 6.35597107,1.36962784 6.36349738,1.36680581 L6.36349738,1.36680581 L6.36349738,1.36680581 Z M12.5124949,2.87377271 C12.4955607,2.89917103 11.5227847,4.38073961 8.94314106,5.34681639 C7.7756218,3.20112881 6.49238549,1.49661944 6.38983948,1.36116174 C6.90633269,1.2360515 7.44540483,1.16832265 8.00047039,1.16832265 C9.72964074,1.16832265 11.3092256,1.81362808 12.5124949,2.87377271 L12.5124949,2.87377271 L12.5124949,2.87377271 Z M14.8305992,7.93180081 C14.7318163,7.91016521 12.4193567,7.4125463 10.072088,7.70791934 C10.0231669,7.59127521 9.97518669,7.4736904 9.92438408,7.35610559 C9.78232493,7.02122406 9.6289763,6.69010524 9.46998295,6.36463049 C12.168166,5.26309601 13.2632445,3.67993415 13.2764156,3.66112058 C14.2341389,4.82473984 14.8146058,6.31101182 14.8305992,7.93180081 L14.8305992,7.93180081 L14.8305992,7.93180081 Z M15.8381843,6.39002881 C15.7328159,5.87641837 15.5747633,5.36939267 15.3706121,4.88588394 C15.1711648,4.411782 14.9218557,3.95461226 14.6330335,3.52754424 C14.3479744,3.10423893 14.0186982,2.70539126 13.6574352,2.34417073 C13.2952314,1.98200952 12.8972776,1.65371274 12.4729817,1.36774649 C12.0458635,1.07801752 11.58864,0.830619084 11.1144823,0.629313893 C10.6309167,0.426127344 10.1247722,0.268093362 9.61110131,0.163678053 C9.08425942,0.0555000294 8.54236491,0 8.00047039,0 C7.45763509,0 6.91574058,0.0555000294 6.38889869,0.163678053 C5.87522785,0.268093362 5.36908332,0.426127344 4.88551773,0.629313893 C4.41136003,0.830619084 3.95413653,1.07801752 3.5260775,1.36774649 C3.10272241,1.65371274 2.70476862,1.98200952 2.34256483,2.34417073 C1.98130182,2.70539126 1.65296643,3.10423893 1.36696654,3.52754424 C1.07814429,3.95461226 0.828835186,4.411782 0.629387899,4.88588394 C0.424295878,5.36939267 0.267184101,5.87641837 0.161815723,6.39002881 C0.054565767,6.91586807 0,7.45769887 0,7.99952966 C0,8.54324181 0.054565767,9.08507261 0.161815723,9.61185255 C0.267184101,10.125463 0.424295878,10.631548 0.629387899,11.1141161 C0.828835186,11.588218 1.07814429,12.0472691 1.36696654,12.4743371 C1.65296643,12.8976424 1.98130182,13.2946087 2.34256483,13.6577106 C2.70476862,14.0189312 3.10272241,14.3462873 3.5260775,14.6331942 C3.95413653,14.9219825 4.41136003,15.1703216 4.88551773,15.3706861 C5.36908332,15.575754 5.87522785,15.7319066 6.38889869,15.8363219 C6.91574058,15.9454406 7.45763509,16 8.00047039,16 C8.54236491,16 9.08425942,15.9454406 9.61110131,15.8363219 C10.1247722,15.7319066 10.6309167,15.575754 11.1144823,15.3706861 C11.58864,15.1703216 12.0458635,14.9219825 12.4729817,14.6331942 C12.8972776,14.3462873 13.2952314,14.0189312 13.6574352,13.6577106 C14.0186982,13.2946087 14.3479744,12.8976424 14.6330335,12.4743371 C14.9218557,12.0472691 15.1711648,11.588218 15.3706121,11.1141161 C15.5747633,10.631548 15.7328159,10.125463 15.8381843,9.61185255 C15.9454342,9.08507261 16,8.54324181 16,7.99952966 C16,7.45769887 15.9454342,6.91586807 15.8381843,6.39002881 L15.8381843,6.39002881 L15.8381843,6.39002881 Z" id="Dribbble"></path>
            </g>
        </g>
    </g>
</svg>